<svg width="60" height="60" viewBox="0 0 60 60" fill="none" xmlns="http://www.w3.org/2000/svg">
<path d="M44.0632 33.1187V33.3498L44.1646 33.5576L48.0926 41.5998L48.0932 41.601C48.2243 41.8686 48.2082 42.185 48.0505 42.4379C47.8929 42.6909 47.6159 42.8447 47.3179 42.8448H35.8094H34.8094V43.8448V44.0266C34.8094 46.7733 32.5827 49 29.836 49C27.0892 49 24.8625 46.7733 24.8625 44.0266V43.8448V42.8448H23.8625H12.3634C12.0653 42.8447 11.7884 42.6909 11.6307 42.4379C11.4731 42.185 11.457 41.8686 11.5881 41.601L11.5887 41.5998L15.5166 33.5576L15.6181 33.3498V33.1187V25.4445H15.6181L15.618 25.4335C15.5541 19.6307 19.0992 14.398 24.512 12.3056L24.5197 12.3026L24.5266 12.2998L24.5269 12.2997L24.5269 12.2996L24.5271 12.2996L24.5274 12.2995L24.5305 12.2982L24.5494 12.2907C24.5672 12.2837 24.5951 12.2729 24.6325 12.2587C24.7072 12.2304 24.8196 12.1888 24.9639 12.1384C25.2531 12.0374 25.6685 11.9018 26.1657 11.7661C27.1704 11.4919 28.4638 11.23 29.7093 11.23C30.9584 11.23 32.3207 11.4931 33.3987 11.77C33.9316 11.9068 34.3823 12.0437 34.6984 12.1458C34.8562 12.1968 34.9798 12.239 35.0627 12.2679C35.1042 12.2824 35.1354 12.2935 35.1555 12.3008L35.1725 12.3069C40.5405 14.4541 44.0618 19.6527 44.0632 25.4352C44.0632 25.4353 44.0632 25.4353 44.0632 25.4354V33.1187Z" stroke="#46B843" stroke-width="2"/>
<path d="M15.3571 43.2678H43.9286" stroke="#46B843" stroke-width="2" stroke-linecap="square"/>
</svg>
