<svg width="15" height="10" viewBox="0 0 15 10" fill="none" xmlns="http://www.w3.org/2000/svg">
<path fill-rule="evenodd" clip-rule="evenodd" d="M14.835 4.60765C15.055 4.82431 15.055 5.17652 14.835 5.39318L10.3222 9.8375C10.1022 10.0542 9.74461 10.0542 9.52462 9.8375C9.30462 9.62084 9.30462 9.26863 9.52462 9.05197L13.0739 5.5554L0.564095 5.5554C0.252714 5.5554 0 5.30763 0 4.99986C0 4.6932 0.252714 4.44432 0.564095 4.44432L13.0739 4.44432L9.52462 0.948863C9.30462 0.732202 9.30462 0.379989 9.52462 0.163329C9.63518 0.0544429 9.77959 0 9.92287 0C10.0673 0 10.2117 0.0544429 10.3222 0.163329L14.835 4.60765Z" fill="#4CB649"/>
</svg>
