<svg width="43" height="41" viewBox="0 0 43 41" fill="none" xmlns="http://www.w3.org/2000/svg">
<mask id="path-1-inside-1_5905_131" fill="white">
<path fill-rule="evenodd" clip-rule="evenodd" d="M29.2193 13.1315L29.2203 13.1325C35.666 19.5758 39.809 28.3188 40.3143 38.0002H36.6513C35.6552 20.6371 21.7138 6.67798 4.36957 5.67385V2.03318C14.0451 2.54055 22.7712 6.6765 29.2193 13.1315ZM3.63455 7.64057C20.4569 8.29306 34.0392 21.8904 34.6842 38.7352C34.7117 39.4252 35.2667 40.0002 35.9592 40.0002H41.1192C41.8092 40.0002 42.3691 39.4252 42.3466 38.7352C42.0167 28.2078 37.6017 18.683 30.6343 11.718C23.6643 4.7406 14.1569 0.333149 3.63455 0.000652323C2.94206 -0.0218474 2.36957 0.540647 2.36957 1.23064V6.36558C2.36957 7.05558 2.94206 7.61307 3.63455 7.64057ZM3.62455 13.6105C10.402 13.928 16.5144 16.823 21.0119 21.3279C25.5218 25.8404 28.4043 31.9578 28.7293 38.7352C28.7618 39.4252 28.2018 40.0002 27.5118 40.0002H22.3444C21.6544 40.0002 21.0969 39.4252 21.0519 38.7402C20.7494 34.1928 18.8419 29.9428 15.6044 26.7154C12.3745 23.4754 8.14201 21.5629 3.62455 21.2604C2.93706 21.2129 2.36957 20.6554 2.36957 19.9654V14.833C2.36957 14.1405 2.93706 13.5805 3.62455 13.6105ZM19.5973 22.7417C23.5844 26.731 26.1919 32.0701 26.6777 38.0002H22.9983C22.5404 33.2045 20.4584 28.7313 17.0186 25.3012C13.5916 21.8645 9.13911 19.7753 4.36957 19.3149V15.6621C10.2924 16.1442 15.6224 18.7603 19.5965 22.741L19.5973 22.7417Z"/>
</mask>
<path d="M29.2203 13.1325L27.8061 14.5467L27.8064 14.547L29.2203 13.1325ZM29.2193 13.1315L27.8043 14.5449L27.8051 14.5457L29.2193 13.1315ZM40.3143 38.0002V40.0002H42.4214L42.3116 37.896L40.3143 38.0002ZM36.6513 38.0002L34.6546 38.1148L34.7627 40.0002H36.6513V38.0002ZM4.36957 5.67385H2.36957V7.56141L4.25397 7.67051L4.36957 5.67385ZM4.36957 2.03318L4.4743 0.0359279L2.36957 -0.0744402V2.03318H4.36957ZM34.6842 38.7352L32.6857 38.8118L32.6858 38.8149L34.6842 38.7352ZM3.63455 7.64057L3.55519 9.639L3.55704 9.63907L3.63455 7.64057ZM42.3466 38.7352L40.3476 38.7979L40.3477 38.8004L42.3466 38.7352ZM30.6343 11.718L29.2193 13.1315L29.2203 13.1325L30.6343 11.718ZM3.63455 0.000652323L3.56961 1.9996L3.57139 1.99965L3.63455 0.000652323ZM21.0119 21.3279L19.5965 22.741L19.5973 22.7417L21.0119 21.3279ZM3.62455 13.6105L3.71814 11.6127L3.71174 11.6124L3.62455 13.6105ZM28.7293 38.7352L30.7271 38.6411L30.727 38.6394L28.7293 38.7352ZM21.0519 38.7402L23.0476 38.6091L23.0475 38.6075L21.0519 38.7402ZM15.6044 26.7154L14.188 28.1274L14.1924 28.1318L15.6044 26.7154ZM3.62455 21.2604L3.4867 23.2557L3.49093 23.256L3.62455 21.2604ZM26.6777 38.0002V40.0002H28.8482L28.671 37.8369L26.6777 38.0002ZM19.5973 22.7417L21.0119 21.3279L21.0115 21.3275L19.5973 22.7417ZM22.9983 38.0002L21.0073 38.1903L21.1802 40.0002H22.9983V38.0002ZM17.0186 25.3012L15.6024 26.7134L15.6064 26.7173L17.0186 25.3012ZM4.36957 19.3149H2.36957V21.1311L4.17739 21.3056L4.36957 19.3149ZM4.36957 15.6621L4.53185 13.6687L2.36957 13.4926V15.6621H4.36957ZM19.5965 22.741L18.1811 24.154L18.1823 24.1552L19.5965 22.741ZM30.6345 11.7183L30.6335 11.7173L27.8051 14.5457L27.8061 14.5467L30.6345 11.7183ZM42.3116 37.896C41.7795 27.7016 37.4159 18.4972 30.6343 11.718L27.8064 14.547C33.916 20.6545 37.8385 28.936 38.317 38.1045L42.3116 37.896ZM36.6513 40.0002H40.3143V36.0002H36.6513V40.0002ZM4.25397 7.67051C20.5827 8.61585 33.7166 21.7642 34.6546 38.1148L38.648 37.8857C37.5938 19.51 22.8448 4.74011 4.48516 3.67719L4.25397 7.67051ZM2.36957 2.03318V5.67385H6.36957V2.03318H2.36957ZM30.6343 11.718C23.8505 4.92696 14.6629 0.570199 4.4743 0.0359279L4.26484 4.03044C13.4273 4.5109 21.692 8.42603 27.8043 14.5449L30.6343 11.718ZM36.6828 38.6587C35.9978 20.7713 21.58 6.33512 3.71207 5.64207L3.55704 9.63907C19.3337 10.251 32.0806 23.0095 32.6857 38.8118L36.6828 38.6587ZM35.9592 38.0002C36.4231 38.0002 36.6708 38.3575 36.6826 38.6556L32.6858 38.8149C32.7527 40.493 34.1104 42.0002 35.9592 42.0002V38.0002ZM41.1192 38.0002H35.9592V42.0002H41.1192V38.0002ZM40.3477 38.8004C40.3331 38.3539 40.686 38.0002 41.1192 38.0002V42.0002C42.9323 42.0002 44.4052 40.4966 44.3456 38.67L40.3477 38.8004ZM29.2203 13.1325C35.8425 19.7523 40.0342 28.7995 40.3476 38.7979L44.3457 38.6726C43.9991 27.6162 39.3609 17.6136 32.0482 10.3036L29.2203 13.1325ZM3.57139 1.99965C13.5647 2.31543 22.5944 6.49947 29.2193 13.1315L32.0492 10.3046C24.7343 2.98174 14.7491 -1.64914 3.69772 -1.99835L3.57139 1.99965ZM4.36957 1.23064C4.36957 1.65591 4.02124 2.01427 3.56961 1.9996L3.6995 -1.99829C1.86288 -2.05797 0.369568 -0.574613 0.369568 1.23064H4.36957ZM4.36957 6.36558V1.23064H0.369568V6.36558H4.36957ZM3.71391 5.64215C4.01504 5.6541 4.36957 5.90431 4.36957 6.36558H0.369568C0.369568 8.20684 1.86909 9.57204 3.55519 9.639L3.71391 5.64215ZM22.4273 19.9149C17.5931 15.0727 11.0153 11.9545 3.71814 11.6127L3.53096 15.6083C9.78864 15.9015 15.4357 18.5732 19.5965 22.741L22.4273 19.9149ZM30.727 38.6394C30.3773 31.3462 27.2739 24.7642 22.4265 19.9141L19.5973 22.7417C23.7697 26.9165 26.4313 32.5695 26.7316 38.831L30.727 38.6394ZM27.5118 42.0002C29.3191 42.0002 30.8144 40.4955 30.7271 38.6411L26.7315 38.8293C26.7092 38.355 27.0845 38.0002 27.5118 38.0002V42.0002ZM22.3444 42.0002H27.5118V38.0002H22.3444V42.0002ZM19.0562 38.8713C19.1633 40.5014 20.4974 42.0002 22.3444 42.0002V38.0002C22.5724 38.0002 22.7548 38.0982 22.8647 38.2071C22.9695 38.3111 23.0371 38.4504 23.0476 38.6091L19.0562 38.8713ZM14.1924 28.1318C17.0815 31.0119 18.7856 34.8037 19.0563 38.873L23.0475 38.6075C22.7132 33.5819 20.6023 28.8738 17.0165 25.299L14.1924 28.1318ZM3.49093 23.256C7.52521 23.5261 11.3014 25.2319 14.188 28.1274L17.0208 25.3033C13.4475 21.7189 8.75881 19.5997 3.75818 19.2649L3.49093 23.256ZM0.369568 19.9654C0.369568 21.8012 1.84778 23.1424 3.4867 23.2557L3.76241 19.2652C4.02634 19.2834 4.36957 19.5097 4.36957 19.9654H0.369568ZM0.369568 14.833V19.9654H4.36957V14.833H0.369568ZM3.71174 11.6124C1.8455 11.531 0.369568 13.0432 0.369568 14.833H4.36957C4.36957 15.2378 4.02862 15.63 3.53736 15.6086L3.71174 11.6124ZM28.671 37.8369C28.1451 31.4172 25.3213 25.6398 21.0119 21.3279L18.1827 24.1556C21.8474 27.8223 24.2387 32.7231 24.6843 38.1635L28.671 37.8369ZM22.9983 40.0002H26.6777V36.0002H22.9983V40.0002ZM15.6064 26.7173C18.7122 29.8145 20.5931 33.8523 21.0073 38.1903L24.9892 37.8101C24.4876 32.5566 22.2046 27.6481 18.4309 23.885L15.6064 26.7173ZM4.17739 21.3056C8.48506 21.7214 12.5045 23.6067 15.6025 26.7134L18.4348 23.8889C14.6788 20.1223 9.79316 17.8291 4.56174 17.3241L4.17739 21.3056ZM2.36957 15.6621V19.3149H6.36957V15.6621H2.36957ZM21.0119 21.3279C16.7163 17.0252 10.9476 14.191 4.53185 13.6687L4.20728 17.6555C9.63729 18.0975 14.5285 20.4953 18.1811 24.154L21.0119 21.3279ZM21.0115 21.3275L21.0107 21.3267L18.1823 24.1552L18.1831 24.156L21.0115 21.3275Z" fill="#46B843" mask="url(#path-1-inside-1_5905_131)"/>
<ellipse cx="6.71739" cy="34.7826" rx="5.21739" ry="5.21739" stroke="#46B843" stroke-width="2"/>
</svg>
