<svg aria-hidden="true" style="position: absolute; width: 0; height: 0; overflow: hidden;" version="1.1" xmlns="http://www.w3.org/2000/svg" xmlns:xlink="http://www.w3.org/1999/xlink">
  <defs>

    <symbol id="icon-Bitcoin" viewBox="0 0 105 32">
      <path fill="#889099" style="fill: var(--color1, #889099)" d="M32.090 6.61c0.887 0 1.653 0.158 2.297 0.469 0.647 0.314 1.182 0.736 1.61 1.267 0.423 0.534 0.737 1.159 0.94 1.873 0.202 0.718 0.303 1.488 0.303 2.314 0 1.267-0.233 2.466-0.705 3.595-0.471 1.131-1.111 2.112-1.925 2.948s-1.773 1.495-2.88 1.981c-1.106 0.488-2.307 0.731-3.597 0.731-0.167 0-0.46-0.004-0.875-0.014-0.414-0.008-0.891-0.050-1.424-0.122-0.537-0.074-1.104-0.184-1.704-0.332-0.599-0.145-1.168-0.348-1.704-0.606l4.79-20.026 4.291-0.662-1.715 7.106c0.367-0.165 0.737-0.293 1.106-0.385 0.371-0.090 0.767-0.138 1.191-0.138zM28.491 18.404c0.646 0 1.255-0.158 1.827-0.469 0.574-0.31 1.069-0.73 1.483-1.253 0.414-0.524 0.743-1.116 0.983-1.777s0.36-1.35 0.36-2.067c0-0.881-0.148-1.569-0.443-2.065-0.295-0.495-0.841-0.744-1.634-0.744-0.26 0-0.595 0.049-1.010 0.137-0.416 0.095-0.789 0.288-1.123 0.58l-1.826 7.548c0.11 0.018 0.208 0.037 0.291 0.054 0.081 0.018 0.171 0.032 0.261 0.041 0.095 0.011 0.203 0.016 0.334 0.016s0.296-0.001 0.499-0.001z"></path>
      <path fill="#889099" style="fill: var(--color1, #889099)" d="M41.691 21.405h-4.099l3.461-14.489h4.127l-3.489 14.489zM43.685 5.152c-0.572 0-1.091-0.17-1.551-0.509-0.464-0.337-0.694-0.857-0.694-1.557 0-0.385 0.079-0.747 0.235-1.087 0.158-0.34 0.365-0.634 0.624-0.882 0.259-0.247 0.559-0.444 0.899-0.593 0.343-0.146 0.707-0.219 1.095-0.219 0.572 0 1.088 0.169 1.549 0.509 0.46 0.341 0.692 0.861 0.692 1.556 0 0.386-0.078 0.75-0.236 1.090-0.157 0.34-0.363 0.633-0.622 0.882-0.256 0.247-0.559 0.444-0.899 0.591-0.343 0.148-0.705 0.219-1.093 0.219z"></path>
      <path fill="#889099" style="fill: var(--color1, #889099)" d="M48.771 3.308l4.293-0.662-1.054 4.27h4.597l-0.83 3.36h-4.57l-1.217 5.069c-0.112 0.422-0.176 0.817-0.193 1.183-0.020 0.369 0.027 0.685 0.137 0.951s0.308 0.472 0.595 0.618c0.286 0.148 0.695 0.222 1.231 0.222 0.442 0 0.873-0.042 1.289-0.125 0.414-0.081 0.833-0.195 1.258-0.344l0.306 3.142c-0.554 0.202-1.153 0.376-1.8 0.522-0.647 0.148-1.413 0.219-2.299 0.219-1.273 0-2.261-0.187-2.963-0.562-0.702-0.378-1.199-0.893-1.496-1.545-0.293-0.65-0.424-1.399-0.387-2.244 0.038-0.846 0.166-1.736 0.387-2.673l2.716-11.402z"></path>
      <path fill="#889099" style="fill: var(--color1, #889099)" d="M56.425 15.621c0-1.248 0.203-2.425 0.609-3.527 0.405-1.103 0.989-2.067 1.746-2.895 0.755-0.824 1.674-1.476 2.756-1.954 1.077-0.477 2.282-0.717 3.612-0.717 0.831 0 1.575 0.078 2.228 0.235 0.656 0.158 1.251 0.363 1.787 0.619l-1.413 3.198c-0.369-0.149-0.753-0.28-1.149-0.4-0.397-0.121-0.881-0.18-1.453-0.18-1.367 0-2.449 0.469-3.254 1.403-0.801 0.936-1.205 2.195-1.205 3.776 0 0.937 0.203 1.693 0.611 2.273 0.405 0.579 1.154 0.867 2.242 0.867 0.537 0 1.054-0.056 1.551-0.165 0.5-0.11 0.941-0.248 1.33-0.413l0.306 3.278c-0.518 0.201-1.090 0.382-1.717 0.539-0.628 0.153-1.377 0.231-2.244 0.231-1.145 0-2.114-0.166-2.907-0.495-0.793-0.333-1.449-0.776-1.965-1.337-0.519-0.562-0.892-1.218-1.122-1.971-0.231-0.75-0.348-1.541-0.348-2.365v0z"></path>
      <path fill="#889099" style="fill: var(--color1, #889099)" d="M74.63 21.791c-0.978 0-1.828-0.148-2.548-0.441-0.719-0.294-1.314-0.705-1.785-1.239-0.471-0.531-0.825-1.161-1.066-1.886s-0.358-1.528-0.358-2.407c0-1.104 0.179-2.208 0.538-3.308 0.358-1.102 0.89-2.092 1.594-2.973 0.698-0.882 1.559-1.603 2.574-2.166 1.013-0.558 2.179-0.839 3.487-0.839 0.96 0 1.806 0.148 2.536 0.441 0.727 0.294 1.326 0.708 1.8 1.239 0.468 0.534 0.825 1.161 1.064 1.888 0.241 0.723 0.36 1.529 0.36 2.409 0 1.101-0.176 2.204-0.524 3.308-0.349 1.098-0.867 2.091-1.551 2.973-0.682 0.881-1.536 1.601-2.561 2.162-1.025 0.559-2.213 0.839-3.56 0.839zM76.678 10.001c-0.608 0-1.145 0.175-1.605 0.522-0.462 0.35-0.849 0.791-1.162 1.322-0.316 0.533-0.551 1.117-0.708 1.749-0.157 0.635-0.234 1.234-0.234 1.804 0 0.919 0.149 1.635 0.442 2.15 0.297 0.512 0.831 0.77 1.607 0.77 0.61 0 1.144-0.174 1.607-0.525 0.459-0.348 0.847-0.788 1.162-1.321 0.314-0.531 0.55-1.116 0.708-1.749 0.155-0.633 0.234-1.235 0.234-1.804 0-0.917-0.148-1.634-0.444-2.149-0.295-0.514-0.831-0.771-1.607-0.771z"></path>
      <path fill="#889099" style="fill: var(--color1, #889099)" d="M87.29 21.405h-4.101l3.461-14.489h4.129l-3.489 14.489zM89.281 5.152c-0.572 0-1.090-0.17-1.549-0.509-0.462-0.337-0.694-0.857-0.694-1.557 0-0.385 0.079-0.747 0.236-1.087s0.365-0.634 0.624-0.882c0.258-0.247 0.56-0.444 0.9-0.593 0.341-0.146 0.705-0.219 1.093-0.219 0.573 0 1.091 0.169 1.551 0.509 0.461 0.341 0.694 0.861 0.694 1.556 0 0.386-0.083 0.75-0.238 1.090s-0.362 0.633-0.621 0.882c-0.26 0.247-0.558 0.444-0.899 0.591-0.343 0.148-0.707 0.219-1.097 0.219z"></path>
      <path fill="#889099" style="fill: var(--color1, #889099)" d="M93.73 7.577c0.311-0.090 0.658-0.199 1.037-0.318 0.379-0.118 0.803-0.229 1.276-0.328 0.468-0.102 0.996-0.184 1.577-0.25s1.242-0.097 1.979-0.097c2.161 0 3.651 0.626 4.474 1.875 0.821 1.249 0.964 2.958 0.43 5.123l-1.885 7.823h-4.125l1.827-7.659c0.111-0.478 0.199-0.941 0.263-1.392 0.066-0.447 0.061-0.841-0.014-1.183-0.072-0.337-0.244-0.613-0.51-0.827-0.271-0.212-0.68-0.316-1.234-0.316-0.534 0-1.078 0.057-1.633 0.167l-2.687 11.21h-4.126l3.351-13.829z"></path>
      <path fill="#889099" style="fill: var(--color1, #889099)" d="M44.214 30.040l-0.804 1.453h-0.87c0.613-1.099 1.21-2.112 1.793-3.037s1.158-1.799 1.727-2.62h0.779c0.082 0.408 0.157 0.821 0.226 1.237s0.135 0.853 0.201 1.31c0.066 0.457 0.129 0.942 0.189 1.454s0.123 1.063 0.189 1.657h-0.804c-0.027-0.245-0.052-0.491-0.074-0.739s-0.047-0.486-0.074-0.714l-2.478-0.001zM46.618 29.403c-0.044-0.44-0.094-0.879-0.152-1.314s-0.125-0.884-0.201-1.347c-0.191 0.278-0.429 0.636-0.714 1.073-0.284 0.439-0.607 0.967-0.968 1.588h2.035z"></path>
      <path fill="#889099" style="fill: var(--color1, #889099)" d="M50.552 31.615c-0.356 0-0.669-0.052-0.939-0.155s-0.497-0.25-0.677-0.441c-0.181-0.19-0.316-0.42-0.406-0.69s-0.135-0.573-0.135-0.91c0-0.49 0.078-0.958 0.234-1.404s0.377-0.84 0.665-1.183c0.287-0.343 0.633-0.616 1.038-0.821s0.855-0.306 1.354-0.306c0.427 0 0.767 0.044 1.022 0.131s0.436 0.169 0.546 0.245l-0.328 0.653c-0.126-0.082-0.297-0.159-0.513-0.233s-0.472-0.11-0.767-0.11c-0.377 0-0.717 0.088-1.017 0.266s-0.555 0.405-0.763 0.686c-0.208 0.28-0.366 0.596-0.476 0.947s-0.164 0.698-0.164 1.041c0 1.061 0.462 1.592 1.387 1.592 0.197 0 0.373-0.014 0.529-0.042s0.294-0.058 0.414-0.094c0.12-0.035 0.227-0.074 0.32-0.118s0.175-0.082 0.246-0.114l0.098 0.686c-0.066 0.038-0.152 0.079-0.258 0.123s-0.231 0.084-0.373 0.123c-0.142 0.038-0.301 0.069-0.476 0.094s-0.361 0.036-0.558 0.036z"></path>
      <path fill="#889099" style="fill: var(--color1, #889099)" d="M55.162 31.615c-0.356 0-0.669-0.052-0.939-0.155s-0.497-0.25-0.677-0.441c-0.181-0.19-0.316-0.42-0.406-0.69s-0.135-0.573-0.135-0.91c0-0.49 0.078-0.958 0.234-1.404s0.377-0.84 0.665-1.183c0.287-0.343 0.633-0.616 1.038-0.821s0.855-0.306 1.354-0.306c0.427 0 0.767 0.044 1.022 0.131s0.436 0.169 0.546 0.245l-0.328 0.653c-0.126-0.082-0.297-0.159-0.513-0.233s-0.472-0.11-0.767-0.11c-0.377 0-0.717 0.088-1.017 0.266s-0.555 0.405-0.763 0.686-0.366 0.596-0.476 0.947c-0.109 0.351-0.164 0.698-0.164 1.041 0 1.061 0.462 1.592 1.387 1.592 0.197 0 0.373-0.014 0.529-0.042s0.294-0.058 0.414-0.094c0.12-0.035 0.227-0.074 0.32-0.118s0.175-0.082 0.246-0.114l0.098 0.686c-0.066 0.038-0.152 0.079-0.258 0.123s-0.231 0.084-0.373 0.123c-0.142 0.038-0.301 0.069-0.476 0.094s-0.361 0.036-0.558 0.036z"></path>
      <path fill="#889099" style="fill: var(--color1, #889099)" d="M57.365 31.492l1.362-5.657h3.356l-0.156 0.661h-2.568l-0.41 1.706h2.281l-0.156 0.645h-2.273l-0.484 1.984h2.757l-0.156 0.661h-3.553z"></path>
      <path fill="#889099" style="fill: var(--color1, #889099)" d="M64.458 25.779c0.662 0 1.161 0.125 1.497 0.375s0.505 0.615 0.505 1.094c0 0.37-0.070 0.691-0.209 0.959s-0.338 0.491-0.595 0.666c-0.257 0.174-0.566 0.303-0.927 0.387s-0.763 0.127-1.206 0.127h-0.566l-0.509 2.106h-0.796l1.346-5.584c0.23-0.055 0.473-0.090 0.73-0.106s0.501-0.025 0.73-0.025zM64.36 26.448c-0.388 0-0.624 0.011-0.706 0.033l-0.542 2.245h0.517c0.23 0 0.465-0.020 0.706-0.061s0.457-0.113 0.648-0.216c0.191-0.103 0.349-0.246 0.472-0.429s0.185-0.417 0.185-0.705c0-0.31-0.115-0.532-0.345-0.666s-0.541-0.2-0.935-0.2z"></path>
      <path fill="#889099" style="fill: var(--color1, #889099)" d="M71.314 25.835l-0.156 0.661h-1.715l-1.206 4.996h-0.796l1.206-4.996h-1.715l0.156-0.661h4.226z"></path>
      <path fill="#889099" style="fill: var(--color1, #889099)" d="M70.576 31.492l1.362-5.657h3.356l-0.156 0.661h-2.568l-0.41 1.706h2.281l-0.156 0.645h-2.273l-0.484 1.984h2.757l-0.156 0.661h-3.553z"></path>
      <path fill="#889099" style="fill: var(--color1, #889099)" d="M77.657 25.779c0.842 0 1.471 0.197 1.887 0.592s0.624 0.927 0.624 1.596c0 0.468-0.074 0.918-0.222 1.35-0.148 0.433-0.377 0.815-0.689 1.148-0.312 0.331-0.71 0.596-1.194 0.792s-1.063 0.294-1.735 0.294c-0.23 0-0.479-0.011-0.747-0.033s-0.503-0.060-0.706-0.114l1.321-5.494c0.23-0.054 0.473-0.090 0.73-0.106s0.501-0.025 0.73-0.025zM77.591 26.448c-0.41 0-0.656 0.011-0.739 0.033l-1.050 4.359c0.044 0.011 0.118 0.020 0.221 0.029s0.273 0.012 0.509 0.012c0.432 0 0.822-0.071 1.169-0.216s0.641-0.346 0.882-0.605c0.241-0.259 0.427-0.565 0.558-0.922s0.197-0.747 0.197-1.171c0-0.479-0.14-0.852-0.419-1.119-0.279-0.266-0.722-0.4-1.329-0.4z"></path>
      <path fill="#889099" style="fill: var(--color1, #889099)" d="M86.297 31.492h-0.796l0.632-2.629h-2.634l-0.632 2.629h-0.796l1.362-5.657h0.796l-0.574 2.367h2.635l0.574-2.367h0.796l-1.363 5.657z"></path>
      <path fill="#889099" style="fill: var(--color1, #889099)" d="M87.552 31.492l1.362-5.657h3.356l-0.157 0.661h-2.568l-0.41 1.706h2.281l-0.157 0.645h-2.273l-0.483 1.984h2.756l-0.157 0.661h-3.551z"></path>
      <path fill="#889099" style="fill: var(--color1, #889099)" d="M94.645 25.779c0.607 0 1.089 0.122 1.444 0.367s0.533 0.604 0.533 1.077c0 0.479-0.14 0.881-0.422 1.205s-0.677 0.557-1.186 0.697c0.066 0.115 0.142 0.261 0.23 0.437s0.178 0.373 0.271 0.588c0.092 0.214 0.183 0.438 0.271 0.669 0.088 0.232 0.163 0.456 0.23 0.673h-0.812c-0.076-0.207-0.156-0.416-0.238-0.629s-0.165-0.416-0.249-0.612c-0.086-0.196-0.17-0.38-0.255-0.551-0.084-0.171-0.163-0.323-0.234-0.453-0.071 0.005-0.142 0.010-0.213 0.012s-0.142 0.004-0.213 0.004h-0.632l-0.533 2.229h-0.796l1.346-5.584c0.23-0.054 0.472-0.090 0.73-0.106 0.256-0.016 0.5-0.024 0.729-0.024zM94.547 26.448c-0.388 0-0.624 0.011-0.706 0.033l-0.517 2.139h0.485c0.224 0 0.454-0.016 0.689-0.049s0.45-0.097 0.643-0.192c0.194-0.095 0.353-0.229 0.476-0.4s0.185-0.399 0.185-0.682c0-0.305-0.116-0.523-0.349-0.653s-0.535-0.197-0.907-0.197z"></path>
      <path fill="#889099" style="fill: var(--color1, #889099)" d="M96.683 31.492l1.362-5.657h3.356l-0.157 0.661h-2.568l-0.41 1.706h2.281l-0.157 0.645h-2.273l-0.483 1.984h2.756l-0.157 0.661h-3.551z"></path>
      <path fill="#889099" style="fill: var(--color1, #889099)" d="M10.97 21.789c6.040 0 10.936-4.871 10.936-10.88s-4.896-10.88-10.936-10.88c-6.040 0-10.936 4.871-10.936 10.88s4.896 10.88 10.936 10.88zM13.386 6.612c1.515 0.52 2.624 1.298 2.406 2.746-0.158 1.061-0.749 1.573-1.534 1.753 1.077 0.558 1.625 1.413 1.103 2.897-0.647 1.842-2.187 1.997-4.234 1.612l-0.497 1.98-1.2-0.298 0.49-1.954c-0.311-0.077-0.629-0.159-0.957-0.247l-0.492 1.963-1.199-0.298 0.496-1.984c-0.106-0.027-0.212-0.055-0.319-0.083-0.177-0.046-0.355-0.092-0.536-0.137l-1.562-0.387 0.596-1.367c0 0 0.885 0.233 0.872 0.216 0.34 0.084 0.491-0.137 0.55-0.283l0.785-3.132 0.018 0.004c0.038 0.009 0.075 0.018 0.11 0.028-0.049-0.020-0.092-0.032-0.125-0.040l0.56-2.235c0.015-0.254-0.073-0.573-0.559-0.695 0.018-0.013-0.872-0.216-0.872-0.216l0.319-1.276 1.655 0.411-0.001 0.006c0.249 0.062 0.505 0.12 0.767 0.18l0.492-1.962 1.199 0.298-0.482 1.923c0.323 0.073 0.647 0.147 0.962 0.225l0.479-1.911 1.2 0.298-0.492 1.963zM13.050 13.184c-0.341 1.361-2.482 0.798-3.461 0.54l-0-0c-0.088-0.023-0.166-0.044-0.233-0.060l0.659-2.629c0.082 0.020 0.182 0.043 0.295 0.068h0c1.013 0.226 3.089 0.69 2.74 2.081zM10.515 9.884c0.817 0.216 2.596 0.688 2.906-0.548 0.316-1.264-1.412-1.645-2.258-1.832-0.096-0.021-0.18-0.040-0.249-0.057l-0.598 2.385c0.057 0.014 0.124 0.032 0.199 0.052z"></path>
    </symbol>

    <symbol id="icon-amex-logo" viewBox="0 0 33 32">
    <path fill="#889099" style="fill: var(--color1, #889099)" d="M0.005 0v31.97h31.97v-31.97h-31.97z"></path>
    <path fill="#323642" style="fill: var(--color2, #323642)" d="M30.462 15.502h-2.4l-0.522-0.829v0.829h-3.455l-0.307-0.802h-0.57l-0.301 0.802h-2.061c-0.188 0-0.386-0.015-0.585-0.051-0.122-0.022-0.244-0.052-0.364-0.091-0.097-0.031-0.194-0.069-0.288-0.112s-0.186-0.094-0.275-0.152v0.406h-3.444l-0.624-0.813v0.813h-12.465l-0.307-0.802h-0.571l-0.301 0.802h-1.62v-3.197l1.023-2.39h2.287l0.506 1.142v-1.142h2.804l0.334 0.974 0.328-0.974h12.050v0.437c0.105-0.070 0.216-0.131 0.331-0.185 0.099-0.045 0.201-0.084 0.306-0.117 0.134-0.042 0.273-0.074 0.416-0.096 0.168-0.026 0.341-0.039 0.518-0.039h3.692l0.5 1.13v-1.13h2.234l0.57 0.893v-0.893h2.562v5.587zM31.979 17.424v5.242c-0.126 0.078-0.263 0.144-0.409 0.197-0.26 0.094-0.551 0.147-0.861 0.147h-10.764l-0.624-0.812v0.812h-2.481v-1.417c-0.356 0.132-0.758 0.212-1.2 0.212h0.037v1.205h-3.557l-0.511-0.727-0.495 0.727h-5.683v-5.586h5.705l0.5 0.716 0.506-0.716h19.838z"></path>
    <path fill="#889099" style="fill: var(--color1, #889099)" d="M9.321 18.334h-3.014v3.768h3.014v-0.759h-2.109v-0.759h2.061v-0.754h-2.061v-0.732h2.109v-0.764zM12.459 22.101l-0.926-1.211-0.926 1.211h-1.098l1.502-1.884-1.507-1.884h1.13l0.92 1.195 0.926-1.195h1.098l-1.502 1.868 1.512 1.9h-1.13zM13.789 22.101h0.904v-1.244h1.136c0.824 0 1.335-0.538 1.335-1.265 0-0.748-0.5-1.259-1.302-1.259h-2.072v3.768zM18.982 20.745l1.125 1.356h1.125l-1.254-1.389c0.641-0.119 1.022-0.581 1.022-1.184 0-0.705-0.5-1.195-1.302-1.195h-2.045v3.768h0.904v-1.356h0.425zM24.666 18.334v0.764h-2.11v0.732h2.061v0.754h-2.061v0.759h2.11v0.759h-3.014v-3.768h3.014zM27.147 21.348h-1.932v0.754h1.905c0.813 0 1.297-0.495 1.297-1.2 0-0.673-0.436-1.065-1.168-1.065h-0.872c-0.215 0-0.366-0.14-0.366-0.361 0-0.226 0.151-0.377 0.366-0.377h1.636l0.334-0.764h-1.943c-0.813 0-1.297 0.495-1.297 1.173 0 0.694 0.458 1.093 1.174 1.093h0.866c0.215 0 0.371 0.14 0.371 0.366 0 0.231-0.156 0.382-0.371 0.382zM30.731 21.348h-1.932v0.754h1.905c0.813 0 1.297-0.495 1.297-1.2 0-0.673-0.436-1.065-1.168-1.065h-0.872c-0.216 0-0.366-0.14-0.366-0.361 0-0.226 0.15-0.377 0.366-0.377h1.636l0.334-0.764h-1.943c-0.813 0-1.297 0.495-1.297 1.173 0 0.694 0.458 1.093 1.174 1.093h0.866c0.215 0 0.371 0.14 0.371 0.366 0 0.231-0.156 0.382-0.371 0.382zM19.617 19.103c0.323 0 0.495 0.21 0.495 0.468s-0.172 0.462-0.495 0.462h-1.060v-0.931h1.060zM16.253 19.598c0 0.253-0.161 0.463-0.479 0.463h-1.082v-0.925h1.082c0.318 0 0.479 0.204 0.479 0.462z"></path>
    <path fill="#889099" style="fill: var(--color1, #889099)" d="M4.429 14.592l-1.609-3.768h-1.189l-1.615 3.768h0.963l0.318-0.807h1.792l0.323 0.807h1.017zM5.495 11.003l1.044 3.59h0.818l1.044-3.568-0.021 0.99v2.578h0.877v-3.768h-1.593l-0.716 2.669-0.721-2.669h-1.588v3.768h0.877v-2.572l-0.022-1.017zM13.014 11.589h-2.11v0.732h2.061v0.753h-2.061v0.748h2.11v0.77h-3.014v-3.768h3.014v0.764zM15.005 13.236l1.125 1.356h1.125l-1.254-1.389c0.641-0.118 1.023-0.581 1.023-1.184 0-0.705-0.501-1.195-1.303-1.195h-2.045v3.768h0.904v-1.356h0.425zM18.444 14.592v-3.768h-0.904v3.768h0.904zM20.753 14.592c-1.087-0.005-1.738-0.732-1.738-1.851v-0.065c0-1.071 0.635-1.852 1.798-1.852h1.055v0.813h-0.979c-0.646 0-0.974 0.447-0.974 1.044v0.054c0 0.667 0.366 1.055 0.985 1.055h0.274l-0.371 0.802h-0.049zM25.715 14.592l-1.609-3.768h-1.19l-1.614 3.768h0.963l0.318-0.807h1.792l0.323 0.807h1.017zM26.807 12.337l-0.011-0.312 0.188 0.312 1.442 2.255h1.055v-3.768h-0.883v2.18l0.011 0.28-0.167-0.28-1.41-2.18h-1.108v3.768h0.882v-2.255zM23.202 12.23l0.274-0.705 0.274 0.705 0.334 0.834h-1.211l0.328-0.834zM15.64 11.595c0.323 0 0.495 0.21 0.495 0.468s-0.172 0.463-0.495 0.463h-1.060v-0.931h1.060zM1.916 12.23l0.275-0.705 0.274 0.705 0.334 0.834h-1.211l0.328-0.834z"></path>
    </symbol>

    <symbol id="icon-mastercard" viewBox="0 0 41 32">
    <path fill="#889099" style="fill: var(--color1, #889099)" d="M38.652 29.826v1.639h-0.692v-0.401c-0.248 0.319-0.634 0.499-1.038 0.484-0.955 0-1.729-0.774-1.729-1.729s0.774-1.729 1.729-1.729c0.404-0.015 0.79 0.165 1.038 0.484v-1.729h0.692v2.981zM17.21 28.173v-1.003h-0.726v1.003h-0.657v0.657h0.671v1.522c0 0.768 0.297 1.224 1.148 1.224 0.318 0.001 0.629-0.088 0.899-0.256l-0.207-0.616c-0.193 0.115-0.412 0.179-0.636 0.187-0.346 0-0.477-0.221-0.477-0.553v-1.508h1.176l-0.007-0.657h-1.183zM7.648 29.404c0.024-0.353-0.104-0.7-0.353-0.951s-0.594-0.384-0.947-0.363c-0.466-0.031-0.911 0.195-1.162 0.588-0.229-0.381-0.648-0.607-1.093-0.588-0.387-0.020-0.755 0.167-0.968 0.491v-0.408h-0.719v3.306h0.726v-1.819c-0.031-0.229 0.041-0.46 0.198-0.63s0.381-0.261 0.611-0.249c0.477 0 0.719 0.311 0.719 0.872v1.84h0.726v-1.833c-0.030-0.229 0.043-0.459 0.199-0.628s0.38-0.261 0.61-0.25c0.491 0 0.726 0.311 0.726 0.872v1.84l0.726-0.014v-2.075zM24.528 28.090l-0.014-0.014c0.174 0.001 0.348 0.031 0.512 0.090l-0.221 0.692c-0.143-0.057-0.296-0.085-0.45-0.083-0.456 0-0.692 0.304-0.692 0.851v1.854h-0.719v-3.306h0.712v0.401c0.18-0.309 0.514-0.495 0.872-0.484zM13.904 28.090c-0.837 0-1.383 0.401-1.383 1.058 0 0.54 0.401 0.872 1.141 0.975l0.346 0.048c0.394 0.055 0.581 0.159 0.581 0.346 0 0.256-0.263 0.401-0.754 0.401-0.395 0.011-0.782-0.11-1.1-0.346l-0.346 0.56c0.419 0.293 0.921 0.443 1.432 0.429 0.955 0 1.508-0.45 1.508-1.079s-0.436-0.885-1.155-0.989l-0.346-0.048c-0.311-0.042-0.56-0.104-0.56-0.325s0.235-0.387 0.629-0.387c0.364 0.004 0.722 0.102 1.037 0.284l0.318-0.581c-0.407-0.242-0.875-0.362-1.349-0.346zM34.52 28.090l-0.014-0.014c0.174 0.001 0.347 0.031 0.512 0.090l-0.221 0.692c-0.143-0.057-0.296-0.085-0.45-0.083-0.456 0-0.692 0.304-0.692 0.851v1.854h-0.719v-3.306h0.712v0.401c0.18-0.309 0.514-0.495 0.871-0.484zM25.751 31.074c0.336 0.329 0.795 0.502 1.264 0.475 0.432 0.022 0.856-0.119 1.19-0.394l-0.346-0.581c-0.249 0.19-0.552 0.294-0.865 0.297-0.551-0.045-0.976-0.505-0.976-1.058s0.425-1.014 0.976-1.058c0.313 0.003 0.616 0.108 0.865 0.297l0.346-0.581c-0.333-0.276-0.758-0.416-1.19-0.394-0.469-0.027-0.928 0.146-1.264 0.475s-0.517 0.784-0.5 1.254v0.014c-0.017 0.47 0.164 0.925 0.5 1.254zM31.988 29.819v1.646h-0.719v-0.401c-0.248 0.319-0.634 0.499-1.038 0.484-0.955 0-1.729-0.774-1.729-1.729s0.774-1.729 1.729-1.729c0.404-0.015 0.79 0.165 1.038 0.484v-0.401h0.719v1.646zM30.346 28.88c-0.543-0.020-1.003 0.397-1.035 0.94-0.018 0.276 0.079 0.548 0.27 0.749s0.456 0.313 0.733 0.31c0.544-0.003 0.985-0.44 0.994-0.983s-0.419-0.995-0.962-1.015zM20.631 28.090l0.010 0.007c0.927 0 1.57 0.692 1.57 1.729v0.277h-2.455c0.056 0.493 0.495 0.852 0.989 0.809 0.35-0.005 0.688-0.127 0.961-0.346l0.346 0.533c-0.386 0.315-0.875 0.475-1.373 0.45-0.955 0.013-1.74-0.75-1.753-1.705s0.75-1.74 1.705-1.753zM21.215 28.961c-0.157-0.15-0.367-0.232-0.585-0.228h-0.014c-0.462-0.016-0.852 0.341-0.878 0.802h1.729c-0.005-0.217-0.095-0.424-0.252-0.575zM39.861 30.999c0.042 0 0.084 0.009 0.123 0.024s0.076 0.040 0.107 0.069c0.030 0.030 0.055 0.065 0.073 0.104 0.035 0.082 0.035 0.174 0 0.256-0.018 0.039-0.042 0.074-0.073 0.104s-0.068 0.053-0.107 0.069c-0.041 0.018-0.086 0.028-0.131 0.028-0.134-0.001-0.255-0.079-0.311-0.201-0.035-0.082-0.035-0.174 0-0.256 0.018-0.039 0.042-0.074 0.073-0.104s0.068-0.053 0.107-0.069c0.045-0.018 0.093-0.026 0.142-0.024h-0.002zM39.855 31.583c0.033-0 0.067-0.007 0.097-0.021s0.057-0.032 0.080-0.055c0.090-0.098 0.090-0.248 0-0.346-0.023-0.023-0.050-0.042-0.080-0.055-0.032-0.014-0.066-0.021-0.1-0.021s-0.069 0.007-0.1 0.021c-0.031 0.013-0.059 0.032-0.083 0.055-0.090 0.098-0.090 0.248 0 0.346 0.024 0.024 0.052 0.043 0.083 0.055 0.035 0.015 0.073 0.022 0.111 0.021h-0.007zM39.963 31.199c0.021 0.018 0.033 0.045 0.031 0.073 0.001 0.023-0.008 0.046-0.024 0.062-0.020 0.018-0.046 0.029-0.073 0.031l0.1 0.114h-0.080l-0.093-0.114h-0.031v0.114h-0.066v-0.304l0.145-0.003c0.032-0.002 0.064 0.008 0.090 0.028zM39.797 31.23v0.083h0.076c0.014 0.004 0.028 0.004 0.042 0 0.005-0.010 0.005-0.021 0-0.031 0.005-0.010 0.005-0.021 0-0.031-0.014-0.004-0.028-0.004-0.042 0l-0.076-0.021zM37.028 28.886c-0.543-0.020-1.003 0.397-1.035 0.94-0.018 0.276 0.080 0.548 0.27 0.749s0.456 0.313 0.733 0.31c0.544-0.003 0.985-0.44 0.994-0.983s-0.419-0.995-0.962-1.015zM11.705 29.826v1.639h-0.719v-0.401c-0.248 0.319-0.634 0.499-1.038 0.484-0.955 0-1.729-0.774-1.729-1.729s0.774-1.729 1.729-1.729c0.404-0.015 0.79 0.165 1.038 0.484v-0.401h0.719v1.653zM10.063 28.886c-0.543-0.020-1.003 0.397-1.035 0.94h-0.007c-0.018 0.277 0.080 0.55 0.272 0.751s0.46 0.313 0.738 0.307c0.544-0.003 0.985-0.44 0.994-0.983s-0.419-0.995-0.962-1.015z"></path>
    <path fill="#889099" style="fill: var(--color1, #889099)" opacity="0.4" d="M15.706 12.77c-0.004-3.821 1.75-7.431 4.755-9.791-5.105-4.012-12.435-3.427-16.84 1.342s-4.405 12.123 0 16.893c4.405 4.77 11.735 5.354 16.84 1.342-3.005-2.358-4.758-5.967-4.755-9.787z"></path>
    <path fill="#889099" style="fill: var(--color1, #889099)" d="M40.606 12.77c-0 4.767-2.722 9.115-7.009 11.198s-9.388 1.535-13.136-1.411c3.003-2.36 4.757-5.969 4.757-9.789s-1.754-7.429-4.757-9.789c3.747-2.946 8.848-3.494 13.136-1.411s7.009 6.431 7.009 11.198v0.003z"></path>
    <path fill="#889099" style="fill: var(--color1, #889099)" opacity="0.65" d="M20.572 22.879c-2.994-2.307-4.923-5.928-4.923-10s1.929-7.693 4.923-10c2.994 2.307 4.923 5.928 4.923 10s-1.929 7.693-4.923 10z"></path>
    <path fill="#889099" style="fill: var(--color1, #889099)" d="M39.417 20.081v0.401h-0.073v-0.401h-0.176v-0.083h0.412v0.083h-0.163zM40.215 19.998v0.484l-0.073 0.003v-0.367l-0.135 0.315h-0.093l-0.135-0.315v0.363h-0.090v-0.484h0.111l0.145 0.346 0.145-0.346h0.124z"></path>
    </symbol>

    <symbol id="icon-ok-Pay" viewBox="0 0 132 32">
    <path fill="#889099" style="fill: var(--color1, #889099)" d="M129.987 2.498h-2.007c-1.284 0-2.238 0.862-2.977 1.914l-1.986 2.83c-0.001 0.001-0.001 0.002-0.002 0.003l-4.301 6.126-3.73-5.308c-0.017-0.027-0.026-0.051-0.045-0.078l-2.512-3.567c-0.741-1.051-1.704-1.912-2.988-1.912h-1.861c-1.284 0-2.117 0.86-1.373 1.908l2.527 3.574c0.005 0.007 0.012 0.014 0.018 0.022l7.193 10.155v11.497c0 1.287 1.052 2.338 2.336 2.337l0.87-0.003c1.285-0.001 2.336-1.057 2.336-2.344v-11.499l7.662-10.815c0.024-0.031 0.055-0.061 0.077-0.093l2.003-2.837c0.743-1.051 0.044-1.911-1.24-1.911z"></path>
    <path fill="#889099" style="fill: var(--color1, #889099)" d="M46.14 16.322l7.218-6.948c0.033-0.030 5.102-4.909 5.102-4.909 0.912-0.879-0.069-1.966-1.319-1.966h-2.745c-1.249 0-1.881 0.721-2.791 1.604l-5.343 5.179c-0.005 0.004-0.007 0.009-0.012 0.015l-3.438 3.333v-3.779h-0.015c0.003-0.051 0.015-0.1 0.015-0.151v-3.859c0-1.287-1.022-2.342-2.272-2.342h-1.020c-1.249 0-2.272 1.055-2.272 2.342v3.859c0 0.051 0.012 0.1 0.015 0.151h-0.015v20.808c0 1.287 1.023 2.342 2.272 2.342h1.020c1.25 0 2.272-1.054 2.272-2.342v-9.317l4.898 5.040h0.006l4.821 4.966c0.885 0.909 1.494 1.654 2.744 1.654h2.748c1.249 0 1.782-1.523 0.897-2.433l-12.786-13.246z"></path>
    <path fill="#889099" style="fill: var(--color1, #889099)" d="M100.477 19.209h-5.378c-0.646 0-0.974-0.487-0.732-1.084l2.97-7.28c0.244-0.597 0.642-0.597 0.887-0.001l2.984 7.282c0.244 0.596-0.085 1.083-0.731 1.083zM111.28 29.080h0.014l-9.376-23.312h-0.005l-0.44-1.095c-0.48-1.196-1.929-2.175-3.22-2.175h-0.932c-1.291 0-2.74 0.98-3.216 2.177l-0.434 1.092h-0.016l-9.689 24.060c-0.483 1.195 0.181 2.172 1.472 2.172h2.091c1.291 0 1.898-0.988 2.347-2.195l0.315-0.848h0.013l1.888-5.021h11.417l0.155 0.403 0.115 0.24 1.684 4.501h0.006l0.271 0.725c0.45 1.208 1.239 2.195 2.532 2.195h1.848c1.293 0 1.953-0.976 1.467-2.17l-0.305-0.75z"></path>
    <path fill="#889099" style="fill: var(--color1, #889099)" d="M82.22 13.565c-0.216 0.546-0.531 1.002-0.953 1.376h0.001c-0.846 0.746-2.105 1.153-3.801 1.153h-3.063c-0.656 0-1.192-0.527-1.192-1.171v-6.567c0-0.643 0.536-1.171 1.192-1.171h3.063c1.696 0 2.956 0.407 3.8 1.155 0.423 0.373 0.737 0.825 0.953 1.373 0.213 0.546 0.325 1.184 0.325 1.918 0 0.741-0.111 1.384-0.325 1.935zM87.751 15.57c0.477-1.15 0.713-2.467 0.713-3.94 0-1.461-0.236-2.77-0.713-3.914-0.475-1.143-1.193-2.12-2.145-2.904-1.889-1.554-4.64-2.314-8.139-2.314h-7.571c-1.311 0-2.384 1.055-2.384 2.342v24.818c0 1.287 1.073 2.342 2.384 2.342h0.932c1.311 0 2.384-1.054 2.384-2.342v-8.878h4.256c3.499 0 6.25-0.754 8.138-2.305 0.949-0.779 1.671-1.757 2.146-2.905z"></path>
    <path fill="#889099" style="fill: var(--color1, #889099)" d="M26.666 24.283c-0.782 0.98-1.677 1.695-2.71 2.17s-2.213 0.716-3.565 0.716c-1.355 0-2.536-0.241-3.573-0.716-1.041-0.475-1.94-1.197-2.729-2.178-0.926-1.143-1.579-2.575-1.974-4.263l-0.364-2.458c-0.011-0.148-0.019-0.459-0.023-0.793-0.007-0.35-0.011-0.74-0.011-1.058 0-0.273 0.004-0.498 0.008-0.591l0.282-2.458c0.368-1.922 1.064-3.532 2.083-4.8l-0.004 0.008h0.004c0.789-0.989 1.688-1.704 2.729-2.178 1.037-0.475 2.218-0.716 3.573-0.716 1.352 0 2.532 0.241 3.565 0.716 1.033 0.474 1.928 1.189 2.71 2.17 1.564 1.96 2.376 4.713 2.376 8.223 0 3.5-0.812 6.246-2.376 8.206zM30.975 4.517c-2.641-2.909-6.233-4.387-10.584-4.379-4.371-0.008-7.971 1.47-10.615 4.379-1.947 2.132-3.178 4.831-3.685 8.020v0.008l-0.236 2.512v0.016c-0.016 0.319-0.035 0.645-0.035 1.004 0 0.529 0.023 1.042 0.054 1.54v0.016l0.321 2.512v0.008c0.558 2.948 1.741 5.468 3.581 7.483 2.645 2.893 6.245 4.372 10.615 4.364 4.351 0.008 7.943-1.47 10.584-4.379 2.624-2.887 3.945-6.791 3.945-11.544 0-4.761-1.316-8.674-3.945-11.56z"></path>
    <path fill="#889099" style="fill: var(--color1, #889099)" d="M20.314 14.299h-19.15l1.802-3.54h19.15l-1.802 3.54z"></path>
    <path fill="#889099" style="fill: var(--color1, #889099)" d="M16.726 21.379h-16.726l1.898-3.54h16.726l-1.898 3.54z"></path>
    </symbol>

    <symbol id="icon-burger-menu" viewBox="0 0 32 32">
    <path d="M0 6.667c0-0.736 0.597-1.333 1.333-1.333h29.333c0.736 0 1.333 0.597 1.333 1.333s-0.597 1.333-1.333 1.333h-29.333c-0.736 0-1.333-0.597-1.333-1.333zM0 25.333c0-0.736 0.597-1.333 1.333-1.333h29.333c0.736 0 1.333 0.597 1.333 1.333s-0.597 1.333-1.333 1.333h-29.333c-0.736 0-1.333-0.597-1.333-1.333zM1.333 14.667c-0.736 0-1.333 0.597-1.333 1.333s0.597 1.333 1.333 1.333h29.333c0.736 0 1.333-0.597 1.333-1.333s-0.597-1.333-1.333-1.333h-29.333z"></path>
    </symbol>

    <symbol id="icon-close" viewBox="0 0 32 32">
    <path fill="#889099" style="fill: var(--color3, #889099)" d="M25.333 8.547l-1.88-1.88-7.453 7.453-7.453-7.453-1.88 1.88 7.453 7.453-7.453 7.453 1.88 1.88 7.453-7.453 7.453 7.453 1.88-1.88-7.453-7.453 7.453-7.453z"></path>
    </symbol>

    <symbol id="icon-google-plus" viewBox="0 0 49 32">
    <path d="M30.615 13.907c0.147 0.897 0.294 1.794 0.294 2.692 0 4.636-1.325 8.374-4.268 11.065-2.796 2.841-6.329 4.336-10.892 4.336-4.416 0-8.095-1.495-11.186-4.636s-4.563-6.879-4.563-11.364c0-4.486 1.472-8.224 4.563-11.364s6.771-4.636 11.186-4.636c4.121 0 7.654 1.346 10.597 4.187l-4.268 4.187c-1.619-1.645-3.827-2.393-6.329-2.393-2.649 0-5.004 1.047-6.918 2.991-1.913 2.093-2.944 4.486-2.944 7.178 0 2.841 1.030 5.234 2.944 7.178s4.268 2.991 6.918 2.991c2.208 0 4.121-0.598 5.887-1.794 1.766-1.346 2.797-2.991 3.091-5.084h-8.978v-5.533h14.866zM49.455 18.542h-4.416v4.636h-4.563v-4.636h-4.563v-4.636h4.563v-4.636h4.563v4.636h4.416v4.636z"></path>
    </symbol>

    <symbol id="icon-linkedin" viewBox="0 0 32 32">
    <path fill="#000" style="fill: var(--color1, #000)" d="M30.024 0h-27.456c-1.315 0-2.568 0.893-2.568 2.168v27.599c0 1.275 1.254 2.233 2.568 2.233h27.456c1.315 0 1.976-0.959 1.976-2.233v-27.599c0-1.275-0.661-2.168-1.976-2.168z"></path>
    <path fill="#fff" style="fill: var(--color2, #fff)" d="M9.454 26.909h-4.364v-14.546h4.364v14.546zM7.521 10.182h-0.033c-1.632 0-2.69-1.060-2.69-2.458 0-1.426 1.089-2.484 2.754-2.484s2.689 1.043 2.721 2.47c0 1.398-1.056 2.472-2.752 2.472zM27.636 26.909h-5.091v-7.864c0-1.956-0.661-3.29-2.42-3.29-1.346 0-2.151 0.9-2.502 1.769-0.13 0.311-0.168 0.745-0.168 1.178v8.207h-4.808c0 0 0.064-13.091 0-14.546h4.808v1.98c0.727-0.991 1.897-2.404 4.481-2.404 3.203 0 5.701 2.078 5.701 6.547v8.423zM17.48 14.389c0.009-0.014 0.020-0.030 0.031-0.046v0.046h-0.031z"></path>
    </symbol>

    <symbol id="icon-reddit" viewBox="0 0 32 32">
    <path fill="#000" style="fill: var(--color1, #000)" d="M15.634 0.011c9.123-0.205 16.6 7.246 16.358 16.452-0.22 8.392-7.106 15.628-16.183 15.536-8.649-0.087-15.762-7.095-15.806-16 0.053-8.892 7.125-15.795 15.631-15.988z"></path>
    <path fill="#fff" style="fill: var(--color2, #fff)" d="M27.275 17.957c0.848-0.628 1.362-1.443 1.26-2.541-0.101-1.077-0.645-1.877-1.631-2.315-1.067-0.47-2.088-0.338-3.003 0.41-0.105 0.085-0.168 0.089-0.276 0.019-1.697-1.119-3.567-1.746-5.584-1.95-0.127-0.013-0.255-0.026-0.388-0.040l-0-0-0.322-0.034c0.268-0.835 0.532-1.657 0.796-2.477l0-0.001 0.5-1.558c0.035 0.006 0.068 0.010 0.099 0.015 0.061 0.009 0.115 0.017 0.169 0.028 0.289 0.062 0.577 0.125 0.866 0.187v0 0l0 0c0.74 0.161 1.481 0.322 2.224 0.473 0.212 0.043 0.317 0.118 0.378 0.342 0.283 1.059 1.337 1.734 2.401 1.563 1.463-0.236 2.257-1.812 1.548-3.075-0.567-1.009-2.329-1.612-3.465-0.292-0.111 0.13-0.205 0.16-0.371 0.124-0.974-0.214-1.95-0.421-2.925-0.629-0.363-0.077-0.727-0.155-1.090-0.232-0.556-0.119-0.816 0.033-0.987 0.578-0.161 0.511-0.322 1.021-0.483 1.531l-0 0c-0.323 1.022-0.645 2.044-0.966 3.067-0.042 0.133-0.077 0.23-0.255 0.229-0.903-0.007-1.793 0.121-2.676 0.308-1.583 0.335-3.056 0.933-4.395 1.847-0.122 0.083-0.197 0.050-0.309-0.002-0.124-0.057-0.248-0.119-0.371-0.18v0c-0.332-0.165-0.665-0.33-1.017-0.423-1.669-0.442-3.652 0.915-3.31 3.144 0.134 0.877 0.655 1.511 1.373 1.992 0.118 0.079 0.144 0.15 0.123 0.279-0.201 1.206-0.076 2.376 0.411 3.502 0.692 1.601 1.883 2.758 3.33 3.67 1.651 1.042 3.482 1.57 5.402 1.812 1.68 0.21 3.35 0.13 5-0.242 2.375-0.536 4.489-1.555 6.117-3.422 1.291-1.481 1.863-3.203 1.597-5.167-0.036-0.262 0.027-0.389 0.23-0.54zM21.627 18.038c0.004 0.887-0.792 1.68-1.687 1.681-0.931 0.001-1.692-0.782-1.693-1.743-0.001-0.878 0.784-1.649 1.684-1.651 0.927-0.003 1.693 0.769 1.696 1.713zM20.34 22.935c0.194-0.225 0.144-0.492-0.034-0.669-0.248-0.246-0.568-0.315-0.817-0.172-0.056 0.032-0.109 0.068-0.162 0.105v0 0c-0.042 0.029-0.084 0.058-0.128 0.084-1.715 1.042-3.506 1.204-5.363 0.432-0.285-0.119-0.553-0.28-0.82-0.442v0c-0.089-0.054-0.179-0.108-0.268-0.16-0.267-0.156-0.601-0.101-0.857 0.157-0.168 0.169-0.19 0.461-0.021 0.7 0.095 0.134 0.224 0.255 0.359 0.35 1.16 0.814 2.465 1.154 3.974 1.172 0.047-0.004 0.103-0.007 0.166-0.011 0.153-0.010 0.344-0.023 0.535-0.041 0.938-0.086 1.833-0.333 2.643-0.82 0.295-0.18 0.565-0.424 0.793-0.685zM13.965 18.034c0.004 0.857-0.802 1.683-1.643 1.685-0.954 0.002-1.747-0.766-1.75-1.693-0.002-0.917 0.774-1.7 1.686-1.7 0.924-0.001 1.704 0.779 1.707 1.709z"></path>
    </symbol>

    <symbol id="icon-twitter" viewBox="0 0 39 32">
    <path d="M38.957 3.786c-1.434 0.643-2.972 1.078-4.589 1.273 1.65-1 2.914-2.585 3.513-4.468-1.548 0.926-3.257 1.598-5.078 1.962-1.458-1.573-3.532-2.553-5.833-2.553-4.413 0-7.992 3.619-7.992 8.079 0 0.633 0.071 1.251 0.207 1.841-6.641-0.337-12.529-3.555-16.471-8.444-0.689 1.192-1.081 2.58-1.081 4.062 0 2.804 1.412 5.278 3.554 6.725-1.31-0.044-2.541-0.409-3.62-1.014v0.101c0 3.914 2.756 7.181 6.41 7.924-0.669 0.182-1.375 0.283-2.106 0.283-0.516 0-1.015-0.052-1.504-0.15 1.018 3.213 3.968 5.549 7.464 5.613-2.734 2.166-6.181 3.454-9.925 3.454-0.645 0-1.28-0.040-1.906-0.111 3.537 2.297 7.736 3.636 12.25 3.636 14.701 0 22.737-12.314 22.737-22.992l-0.027-1.046c1.57-1.132 2.928-2.555 3.997-4.175z"></path>
    </symbol>

    <symbol id="icon-youtube" viewBox="0 0 46 32">
    <path fill="#000" style="fill: var(--color1, #000)" d="M45.714 6.836c0-3.776-3.058-6.836-6.832-6.836h-32.051c-3.773 0-6.832 3.060-6.832 6.836v18.328c0 3.776 3.058 6.836 6.832 6.836h32.051c3.773 0 6.832-3.060 6.832-6.836v-18.328z"></path>
    <path fill="#fff" style="fill: var(--color2, #fff)" d="M18.286 24.94v-17.216l13.055 8.608-13.055 8.608z"></path>
    </symbol>

    <symbol id="icon-fb" viewBox="0 0 16 32">
    <path d="M10.38 32v-14.596h4.718l0.704-5.689h-5.423v-3.627c0-1.653 0.437-2.764 2.718-2.764h2.901v-5.104c-0.507-0.073-2.225-0.219-4.225-0.219-4.183 0-7.042 2.647-7.042 7.517v4.197h-4.732v5.689h4.732v14.596h5.648z"></path>
    </symbol>
  </defs>
</svg>
